# xmcd CD database file
#
# Track frame offsets:
#	150
#	16677
#	27502
#	50577
#	74445
#	102340
#	147402
#	168970
#	186027
#	197700
#	225312
#	236700
#	249965
#
# Disc length: 4056 seconds
#
# Revision: 0
# Processed by: cddbd v1.5.2PL0 Copyright (c) Steve Scherf et al.
# Submitted via: CDex 1.70beta2
#
DISCID=aa0fd60d
DTITLE=Various Artist - Jazz Clasiic Hits
DYEAR=1991
DGENRE=Jazz
TTITLE0=Fred Hersch_Sicilienne
TTITLE1=Les Brown_Bizet Has His Day
TTITLE2=George Adams_Goin' Home
TTITLE3=Lou Donaldson_Mack The Knife
TTITLE4=Bud Shank_Pavane
TTITLE5=Gunter Noris_Toccata And Fugue In D Minor
TTITLE6=Fred Hersch_Clair De Lune From "Suite Bergamasque"
TTITLE7=Ike Quebec_Liebestraum
TTITLE8=Joe Pass_Nuages
TTITLE9=Fred Hersch_Apres Un Reve
TTITLE10=Guy Lombardo_Humoresque
TTITLE11=Freddy Martin_My Reverie
TTITLE12=Gunter Noris_Spring "The Four Seasons"
EXTD=YEAR: 1991
EXTT0=
EXTT1=
EXTT2=
EXTT3=
EXTT4=
EXTT5=
EXTT6=
EXTT7=
EXTT8=
EXTT9=
EXTT10=
EXTT11=
EXTT12=
PLAYORDER=
